<svg width="135" height="40" viewBox="0 0 135 40" fill="none" xmlns="http://www.w3.org/2000/svg">
<rect x="0.5" y="0.5" width="134" height="39" rx="6.5" fill="black"/>
<path d="M81.5267 19.2013V21.4924H80.0906V22.9948H81.5267V28.0998C81.5267 29.8429 82.3152 30.5402 84.2991 30.5402C84.6478 30.5402 84.9798 30.4987 85.2703 30.4489V28.9631C85.0213 28.988 84.8636 29.0046 84.5896 29.0046C83.7015 29.0046 83.3113 28.5895 83.3113 27.6432V22.9948H85.2703V21.4924H83.3113V19.2013H81.5267Z" fill="white"/>
<path d="M90.3242 30.6647C92.9638 30.6647 94.5825 28.8967 94.5825 25.9665C94.5825 23.0529 92.9555 21.2765 90.3242 21.2765C87.6845 21.2765 86.0576 23.0529 86.0576 25.9665C86.0576 28.8967 87.6762 30.6647 90.3242 30.6647ZM90.3242 29.0793C88.7719 29.0793 87.9003 27.9421 87.9003 25.9665C87.9003 24.0075 88.7719 22.862 90.3242 22.862C91.8681 22.862 92.748 24.0075 92.748 25.9665C92.748 27.9338 91.8681 29.0793 90.3242 29.0793Z" fill="white"/>
<path d="M95.9674 30.4904H97.752V25.153C97.752 23.883 98.7066 23.028 100.06 23.028C100.375 23.028 100.906 23.0861 101.056 23.1359V21.3762C100.865 21.3263 100.524 21.3014 100.259 21.3014C99.0802 21.3014 98.0758 21.9489 97.8184 22.8371H97.6856V21.4509H95.9674V30.4904Z" fill="white"/>
<path d="M105.487 22.7956C106.807 22.7956 107.67 23.717 107.712 25.1364H103.146C103.246 23.7253 104.167 22.7956 105.487 22.7956ZM107.703 28.05C107.371 28.7555 106.633 29.1457 105.553 29.1457C104.126 29.1457 103.204 28.1413 103.146 26.5558V26.4562H109.53V25.8337C109.53 22.9948 108.01 21.2765 105.495 21.2765C102.947 21.2765 101.328 23.111 101.328 25.9997C101.328 28.8884 102.914 30.6647 105.504 30.6647C107.571 30.6647 109.015 29.6686 109.422 28.05H107.703Z" fill="white"/>
<path d="M69.8231 27.1522C69.9607 29.372 71.8105 30.7915 74.5636 30.7915C77.506 30.7915 79.3472 29.3031 79.3472 26.9286C79.3472 25.0616 78.2975 24.0292 75.7509 23.4355L74.3829 23.1C72.7655 22.7214 72.1116 22.2138 72.1116 21.3277C72.1116 20.2092 73.1268 19.4779 74.6497 19.4779C76.095 19.4779 77.093 20.192 77.2737 21.3363H79.1493C79.0374 19.2456 77.1963 17.7744 74.6755 17.7744C71.9654 17.7744 70.1586 19.2456 70.1586 21.4567C70.1586 23.2807 71.1824 24.3647 73.4279 24.8895L75.0282 25.2767C76.6715 25.6638 77.3942 26.2317 77.3942 27.1781C77.3942 28.2793 76.2585 29.0794 74.7099 29.0794C73.0494 29.0794 71.8965 28.3309 71.7331 27.1522H69.8231Z" fill="white"/>
<path d="M51.3357 21.3014C50.1072 21.3014 49.0447 21.9157 48.4969 22.945H48.3641V21.4509H46.6458V33.4953H48.4305V29.1208H48.5716C49.0447 30.0754 50.0657 30.6398 51.3523 30.6398C53.6351 30.6398 55.0877 28.8386 55.0877 25.9665C55.0877 23.0944 53.6351 21.3014 51.3357 21.3014ZM50.8294 29.0378C49.3353 29.0378 48.3973 27.8591 48.3973 25.9748C48.3973 24.0822 49.3353 22.9035 50.8377 22.9035C52.3484 22.9035 53.2532 24.0573 53.2532 25.9665C53.2532 27.884 52.3484 29.0378 50.8294 29.0378Z" fill="white"/>
<path d="M61.3325 21.3014C60.104 21.3014 59.0415 21.9157 58.4937 22.945H58.3609V21.4509H56.6426V33.4953H58.4273V29.1208H58.5684C59.0415 30.0754 60.0625 30.6398 61.3491 30.6398C63.6319 30.6398 65.0845 28.8386 65.0845 25.9665C65.0845 23.0944 63.6319 21.3014 61.3325 21.3014ZM60.8262 29.0378C59.3321 29.0378 58.3941 27.8591 58.3941 25.9748C58.3941 24.0822 59.3321 22.9035 60.8345 22.9035C62.3452 22.9035 63.25 24.0573 63.25 25.9665C63.25 27.884 62.3452 29.0378 60.8262 29.0378Z" fill="white"/>
<path d="M43.4438 30.4904H45.4914L41.009 18.0755H38.9356L34.4531 30.4904H36.4319L37.5762 27.1953H42.3081L43.4438 30.4904ZM39.8733 20.3297H40.0196L41.8177 25.5778H38.0666L39.8733 20.3297Z" fill="white"/>
<path d="M35.6504 8.71069V14.6997H37.8127C39.5974 14.6997 40.6309 13.5999 40.6309 11.6865C40.6309 9.80225 39.5891 8.71069 37.8127 8.71069H35.6504ZM36.5801 9.55737H37.709C38.95 9.55737 39.6846 10.3459 39.6846 11.699C39.6846 13.0728 38.9624 13.853 37.709 13.853H36.5801V9.55737Z" fill="white"/>
<path d="M43.7959 14.7869C45.1158 14.7869 45.9251 13.9028 45.9251 12.4377C45.9251 10.981 45.1116 10.0928 43.7959 10.0928C42.4761 10.0928 41.6626 10.981 41.6626 12.4377C41.6626 13.9028 42.472 14.7869 43.7959 14.7869ZM43.7959 13.9941C43.0198 13.9941 42.584 13.4255 42.584 12.4377C42.584 11.4583 43.0198 10.8855 43.7959 10.8855C44.5679 10.8855 45.0079 11.4583 45.0079 12.4377C45.0079 13.4214 44.5679 13.9941 43.7959 13.9941Z" fill="white"/>
<path d="M52.8172 10.1799H51.9249L51.1197 13.6289H51.0492L50.1195 10.1799H49.2645L48.3348 13.6289H48.2684L47.4591 10.1799H46.5543L47.7994 14.6997H48.7167L49.6463 11.3711H49.7169L50.6507 14.6997H51.5763L52.8172 10.1799Z" fill="white"/>
<path d="M53.8449 14.6997H54.7372V12.0559C54.7372 11.3503 55.1564 10.9104 55.8163 10.9104C56.4762 10.9104 56.7916 11.2715 56.7916 11.9978V14.6997H57.684V11.7737C57.684 10.6987 57.1278 10.0928 56.1193 10.0928C55.4386 10.0928 54.9904 10.3958 54.7704 10.8979H54.704V10.1799H53.8449V14.6997Z" fill="white"/>
<path d="M59.0893 14.6997H59.9816V8.41602H59.0893V14.6997Z" fill="white"/>
<path d="M63.3376 14.7869C64.6575 14.7869 65.4668 13.9028 65.4668 12.4377C65.4668 10.981 64.6533 10.0928 63.3376 10.0928C62.0178 10.0928 61.2043 10.981 61.2043 12.4377C61.2043 13.9028 62.0137 14.7869 63.3376 14.7869ZM63.3376 13.9941C62.5615 13.9941 62.1257 13.4255 62.1257 12.4377C62.1257 11.4583 62.5615 10.8855 63.3376 10.8855C64.1096 10.8855 64.5496 11.4583 64.5496 12.4377C64.5496 13.4214 64.1096 13.9941 63.3376 13.9941Z" fill="white"/>
<path d="M68.1255 14.0232C67.6399 14.0232 67.2872 13.7866 67.2872 13.3799C67.2872 12.9814 67.5694 12.7698 68.1919 12.7283L69.2959 12.6577V13.0354C69.2959 13.5957 68.7979 14.0232 68.1255 14.0232ZM67.8973 14.7744C68.4908 14.7744 68.9847 14.5171 69.2544 14.0647H69.325V14.6997H70.1841V11.6118C70.1841 10.6572 69.545 10.0928 68.4119 10.0928C67.3868 10.0928 66.6563 10.5908 66.565 11.3669H67.4283C67.5279 11.0474 67.8724 10.8647 68.3704 10.8647C68.9805 10.8647 69.2959 11.1345 69.2959 11.6118V12.002L68.0716 12.0725C66.9966 12.1389 66.3907 12.6079 66.3907 13.4214C66.3907 14.2473 67.0257 14.7744 67.8973 14.7744Z" fill="white"/>
<path d="M73.2123 14.7744C73.8348 14.7744 74.3619 14.4797 74.6317 13.9858H74.7022V14.6997H75.5572V8.41602H74.6649V10.8979H74.5985C74.3536 10.3999 73.8307 10.1052 73.2123 10.1052C72.0709 10.1052 71.3363 11.01 71.3363 12.4377C71.3363 13.8696 72.0626 14.7744 73.2123 14.7744ZM73.4654 10.9062C74.2125 10.9062 74.6815 11.4998 74.6815 12.4419C74.6815 13.3882 74.2166 13.9734 73.4654 13.9734C72.7101 13.9734 72.2577 13.3965 72.2577 12.4377C72.2577 11.4873 72.7142 10.9062 73.4654 10.9062Z" fill="white"/>
<path d="M81.3437 14.7869C82.6635 14.7869 83.4729 13.9028 83.4729 12.4377C83.4729 10.981 82.6594 10.0928 81.3437 10.0928C80.0239 10.0928 79.2104 10.981 79.2104 12.4377C79.2104 13.9028 80.0197 14.7869 81.3437 14.7869ZM81.3437 13.9941C80.5676 13.9941 80.1318 13.4255 80.1318 12.4377C80.1318 11.4583 80.5676 10.8855 81.3437 10.8855C82.1157 10.8855 82.5556 11.4583 82.5556 12.4377C82.5556 13.4214 82.1157 13.9941 81.3437 13.9941Z" fill="white"/>
<path d="M84.6541 14.6997H85.5464V12.0559C85.5464 11.3503 85.9656 10.9104 86.6255 10.9104C87.2854 10.9104 87.6008 11.2715 87.6008 11.9978V14.6997H88.4932V11.7737C88.4932 10.6987 87.937 10.0928 86.9285 10.0928C86.2478 10.0928 85.7996 10.3958 85.5796 10.8979H85.5132V10.1799H84.6541V14.6997Z" fill="white"/>
<path d="M92.6029 9.05518V10.2007H91.8849V10.9519H92.6029V13.5044C92.6029 14.376 92.9972 14.7246 93.9891 14.7246C94.1634 14.7246 94.3294 14.7039 94.4747 14.679V13.936C94.3502 13.9485 94.2713 13.9568 94.1344 13.9568C93.6903 13.9568 93.4952 13.7493 93.4952 13.2761V10.9519H94.4747V10.2007H93.4952V9.05518H92.6029Z" fill="white"/>
<path d="M95.6725 14.6997H96.5648V12.0601C96.5648 11.3752 96.9716 10.9146 97.702 10.9146C98.3329 10.9146 98.6691 11.2798 98.6691 12.002V14.6997H99.5614V11.782C99.5614 10.707 98.9679 10.0969 98.005 10.0969C97.3244 10.0969 96.8471 10.3999 96.6271 10.9062H96.5565V8.41602H95.6725V14.6997Z" fill="white"/>
<path d="M102.78 10.8523C103.44 10.8523 103.872 11.313 103.893 12.0227H101.61C101.66 11.3171 102.121 10.8523 102.78 10.8523ZM103.889 13.4795C103.723 13.8323 103.353 14.0273 102.814 14.0273C102.1 14.0273 101.639 13.5251 101.61 12.7324V12.6826H104.802V12.3713C104.802 10.9519 104.042 10.0928 102.785 10.0928C101.51 10.0928 100.701 11.01 100.701 12.4543C100.701 13.8987 101.494 14.7869 102.789 14.7869C103.822 14.7869 104.544 14.2888 104.748 13.4795H103.889Z" fill="white"/>
<path d="M24.77 20.3011C24.7916 18.6201 25.6944 17.0295 27.1265 16.149C26.2231 14.8587 24.7098 14.0406 23.1354 13.9913C21.4561 13.8151 19.8282 14.9962 18.9725 14.9962C18.1002 14.9962 16.7827 14.0088 15.364 14.038C13.5147 14.0978 11.7907 15.1491 10.891 16.7659C8.95705 20.1143 10.3996 25.0354 12.2522 27.742C13.1791 29.0673 14.2624 30.5478 15.6799 30.4953C17.0669 30.4377 17.585 29.6108 19.2593 29.6108C20.918 29.6108 21.4041 30.4953 22.8503 30.4619C24.3387 30.4377 25.2764 29.1306 26.1708 27.7927C26.8368 26.8484 27.3492 25.8047 27.6892 24.7002C25.9401 23.9604 24.772 22.2002 24.77 20.3011Z" fill="white"/>
<path d="M22.0383 12.2113C22.8498 11.2371 23.2496 9.98494 23.1528 8.7207C21.913 8.85092 20.7677 9.44348 19.9452 10.3803C19.141 11.2956 18.7224 12.5258 18.8015 13.7417C20.0418 13.7545 21.2611 13.178 22.0383 12.2113Z" fill="white"/>
<rect x="0.5" y="0.5" width="134" height="39" rx="6.5" stroke="#A6A6A6"/>
</svg>
